<svg id="visual" viewBox="0 0 1290 800" width="1290" height="800" xmlns="http://www.w3.org/2000/svg" xmlns:xlink="http://www.w3.org/1999/xlink" version="1.1"><rect x="0" y="0" width="1290" height="800" fill="#c1c987"></rect><path d="M745 800L770.7 781C796.3 762 847.7 724 868.7 685.8C889.7 647.7 880.3 609.3 855.5 571.2C830.7 533 790.3 495 794.2 457C798 419 846 381 868.2 343C890.3 305 886.7 267 879.2 228.8C871.7 190.7 860.3 152.3 854.8 114.2C849.3 76 849.7 38 849.8 19L850 0L1290 0L1290 19C1290 38 1290 76 1290 114.2C1290 152.3 1290 190.7 1290 228.8C1290 267 1290 305 1290 343C1290 381 1290 419 1290 457C1290 495 1290 533 1290 571.2C1290 609.3 1290 647.7 1290 685.8C1290 724 1290 762 1290 781L1290 800Z" fill="#096689"></path><path d="M954 800L962.8 781C971.7 762 989.3 724 994.8 685.8C1000.3 647.7 993.7 609.3 970.7 571.2C947.7 533 908.3 495 907.5 457C906.7 419 944.3 381 943.2 343C942 305 902 267 888.8 228.8C875.7 190.7 889.3 152.3 906.5 114.2C923.7 76 944.3 38 954.7 19L965 0L1290 0L1290 19C1290 38 1290 76 1290 114.2C1290 152.3 1290 190.7 1290 228.8C1290 267 1290 305 1290 343C1290 381 1290 419 1290 457C1290 495 1290 533 1290 571.2C1290 609.3 1290 647.7 1290 685.8C1290 724 1290 762 1290 781L1290 800Z" fill="#00849a"></path><path d="M989 800L984.3 781C979.7 762 970.3 724 984.3 685.8C998.3 647.7 1035.7 609.3 1034.7 571.2C1033.7 533 994.3 495 984.7 457C975 419 995 381 1003.7 343C1012.3 305 1009.7 267 1019.3 228.8C1029 190.7 1051 152.3 1054.7 114.2C1058.3 76 1043.7 38 1036.3 19L1029 0L1290 0L1290 19C1290 38 1290 76 1290 114.2C1290 152.3 1290 190.7 1290 228.8C1290 267 1290 305 1290 343C1290 381 1290 419 1290 457C1290 495 1290 533 1290 571.2C1290 609.3 1290 647.7 1290 685.8C1290 724 1290 762 1290 781L1290 800Z" fill="#2ca1a3"></path><path d="M1093 800L1103.2 781C1113.3 762 1133.7 724 1134 685.8C1134.3 647.7 1114.7 609.3 1097.3 571.2C1080 533 1065 495 1057.3 457C1049.7 419 1049.3 381 1049.2 343C1049 305 1049 267 1065.3 228.8C1081.7 190.7 1114.3 152.3 1112.2 114.2C1110 76 1073 38 1054.5 19L1036 0L1290 0L1290 19C1290 38 1290 76 1290 114.2C1290 152.3 1290 190.7 1290 228.8C1290 267 1290 305 1290 343C1290 381 1290 419 1290 457C1290 495 1290 533 1290 571.2C1290 609.3 1290 647.7 1290 685.8C1290 724 1290 762 1290 781L1290 800Z" fill="#5fbea5"></path><path d="M1196 800L1188.8 781C1181.7 762 1167.3 724 1164.7 685.8C1162 647.7 1171 609.3 1171.8 571.2C1172.7 533 1165.3 495 1171.2 457C1177 419 1196 381 1193.5 343C1191 305 1167 267 1160.3 228.8C1153.7 190.7 1164.3 152.3 1168.3 114.2C1172.3 76 1169.7 38 1168.3 19L1167 0L1290 0L1290 19C1290 38 1290 76 1290 114.2C1290 152.3 1290 190.7 1290 228.8C1290 267 1290 305 1290 343C1290 381 1290 419 1290 457C1290 495 1290 533 1290 571.2C1290 609.3 1290 647.7 1290 685.8C1290 724 1290 762 1290 781L1290 800Z" fill="#97d8a5"></path></svg>