<svg id="visual" viewBox="0 0 1290 800" width="1290" height="800" xmlns="http://www.w3.org/2000/svg" xmlns:xlink="http://www.w3.org/1999/xlink" version="1.1"><rect x="0" y="0" width="1290" height="800" fill="#fdfff0"></rect><path d="M964 800L979.3 781C994.7 762 1025.3 724 1037.8 685.8C1050.3 647.7 1044.7 609.3 1029.8 571.2C1015 533 991 495 993.3 457C995.7 419 1024.3 381 1037.5 343C1050.7 305 1048.3 267 1043.8 228.8C1039.3 190.7 1032.7 152.3 1029.3 114.2C1026 76 1026 38 1026 19L1026 0L1290 0L1290 19C1290 38 1290 76 1290 114.2C1290 152.3 1290 190.7 1290 228.8C1290 267 1290 305 1290 343C1290 381 1290 419 1290 457C1290 495 1290 533 1290 571.2C1290 609.3 1290 647.7 1290 685.8C1290 724 1290 762 1290 781L1290 800Z" fill="#1e2d46"></path><path d="M1089 800L1094.3 781C1099.7 762 1110.3 724 1113.7 685.8C1117 647.7 1113 609.3 1099.2 571.2C1085.3 533 1061.7 495 1061.2 457C1060.7 419 1083.3 381 1082.5 343C1081.7 305 1057.3 267 1049.3 228.8C1041.3 190.7 1049.7 152.3 1060 114.2C1070.3 76 1082.7 38 1088.8 19L1095 0L1290 0L1290 19C1290 38 1290 76 1290 114.2C1290 152.3 1290 190.7 1290 228.8C1290 267 1290 305 1290 343C1290 381 1290 419 1290 457C1290 495 1290 533 1290 571.2C1290 609.3 1290 647.7 1290 685.8C1290 724 1290 762 1290 781L1290 800Z" fill="#3c4d68"></path><path d="M1110 800L1107.2 781C1104.3 762 1098.7 724 1107 685.8C1115.3 647.7 1137.7 609.3 1137 571.2C1136.3 533 1112.7 495 1106.8 457C1101 419 1113 381 1118.2 343C1123.3 305 1121.7 267 1127.5 228.8C1133.3 190.7 1146.7 152.3 1149 114.2C1151.3 76 1142.7 38 1138.3 19L1134 0L1290 0L1290 19C1290 38 1290 76 1290 114.2C1290 152.3 1290 190.7 1290 228.8C1290 267 1290 305 1290 343C1290 381 1290 419 1290 457C1290 495 1290 533 1290 571.2C1290 609.3 1290 647.7 1290 685.8C1290 724 1290 762 1290 781L1290 800Z" fill="#5b6f8d"></path><path d="M1172 800L1178.2 781C1184.3 762 1196.7 724 1196.8 685.8C1197 647.7 1185 609.3 1174.5 571.2C1164 533 1155 495 1150.5 457C1146 419 1146 381 1146 343C1146 305 1146 267 1155.8 228.8C1165.7 190.7 1185.3 152.3 1184 114.2C1182.7 76 1160.3 38 1149.2 19L1138 0L1290 0L1290 19C1290 38 1290 76 1290 114.2C1290 152.3 1290 190.7 1290 228.8C1290 267 1290 305 1290 343C1290 381 1290 419 1290 457C1290 495 1290 533 1290 571.2C1290 609.3 1290 647.7 1290 685.8C1290 724 1290 762 1290 781L1290 800Z" fill="#7c94b3"></path><path d="M1234 800L1229.7 781C1225.3 762 1216.7 724 1215 685.8C1213.3 647.7 1218.7 609.3 1219.2 571.2C1219.7 533 1215.3 495 1219 457C1222.7 419 1234.3 381 1232.8 343C1231.3 305 1216.7 267 1212.5 228.8C1208.3 190.7 1214.7 152.3 1217 114.2C1219.3 76 1217.7 38 1216.8 19L1216 0L1290 0L1290 19C1290 38 1290 76 1290 114.2C1290 152.3 1290 190.7 1290 228.8C1290 267 1290 305 1290 343C1290 381 1290 419 1290 457C1290 495 1290 533 1290 571.2C1290 609.3 1290 647.7 1290 685.8C1290 724 1290 762 1290 781L1290 800Z" fill="#9fbada"></path></svg>